{
  "accessors": [
    {
      "bufferView": 2,
      "componentType": 5126,
      "count": 156,
      "max": [
        7.479976177215576,
        19.08230209350586,
        4.403222560882568
      ],
      "min": [
        -7.479976177215576,
        -9.5367431640625e-07,
        -5.364983081817627
      ],
      "type": "VEC3"
    },
    {
      "bufferView": 2,
      "byteOffset": 1872,
      "componentType": 5126,
      "count": 156,
      "max": [
        1.0,
        0.9410640001296997,
        0.9410653114318848
      ],
      "min": [
        -1.0,
        -1.0,
        -0.9410644173622131
      ],
      "type": "VEC3"
    },
    {
      "bufferView": 3,
      "componentType": 5126,
      "count": 156,
      "max": [
        1.0,
        0.9444023370742798,
        0.9999990463256836,
        1.0
      ],
      "min": [
        -0.9999989867210388,
        -0.9427240490913391,
        -0.9410631060600281,
        1.0
      ],
      "type": "VEC4"
    },
    {
      "bufferView": 1,
      "componentType": 5126,
      "count": 156,
      "max": [
        0.980027437210083,
        0.9837360382080078
      ],
      "min": [
        0.026571810245513916,
        0.026474803686141968
      ],
      "type": "VEC2"
    },
    {
      "bufferView": 1,
      "byteOffset": 1248,
      "componentType": 5126,
      "count": 156,
      "max": [
        0.8926465511322021,
        0.936939001083374
      ],
      "min": [
        0.09716694056987762,
        0.06880712509155273
      ],
      "type": "VEC2"
    },
    {
      "bufferView": 0,
      "componentType": 5125,
      "count": 300,
      "type": "SCALAR"
    }
  ],
  "asset": {
    "extras": {
      "author": "TheoClarke (https://sketchfab.com/TheoClarke)",
      "license": "CC-BY-4.0 (http://creativecommons.org/licenses/by/4.0/)",
      "source": "https://sketchfab.com/3d-models/photo-frame-low-poly-speed-model-3e6dc5d42e1a4e78a7bad4dac7754cb9",
      "title": "Photo Frame (Low Poly Speed Model)"
    },
    "generator": "Sketchfab-15.49.0",
    "version": "2.0"
  },
  "bufferViews": [
    {
      "buffer": 0,
      "byteLength": 1200,
      "name": "floatBufferViews",
      "target": 34963
    },
    {
      "buffer": 0,
      "byteLength": 2496,
      "byteOffset": 1200,
      "byteStride": 8,
      "name": "floatBufferViews",
      "target": 34962
    },
    {
      "buffer": 0,
      "byteLength": 3744,
      "byteOffset": 3696,
      "byteStride": 12,
      "name": "floatBufferViews",
      "target": 34962
    },
    {
      "buffer": 0,
      "byteLength": 2496,
      "byteOffset": 7440,
      "byteStride": 16,
      "name": "floatBufferViews",
      "target": 34962
    }
  ],
  "buffers": [
    {
      "byteLength": 9936,
      "uri": "scene.bin"
    }
  ],
  "images": [
    {
      "uri": "textures/PhotoFrame_MAT_baseColor.png"
    },
    {
      "uri": "textures/PhotoFrame_MAT_metallicRoughness.png"
    },
    {
      "uri": "textures/PhotoFrame_MAT_normal.png"
    }
  ],
  "materials": [
    {
      "doubleSided": true,
      "name": "PhotoFrame_MAT",
      "normalTexture": {
        "index": 2
      },
      "pbrMetallicRoughness": {
        "baseColorTexture": {
          "index": 0
        },
        "metallicFactor": 0.0,
        "metallicRoughnessTexture": {
          "index": 1
        }
      }
    }
  ],
  "meshes": [
    {
      "name": "PhotoFrame_PhotoFrame_MAT_0",
      "primitives": [
        {
          "attributes": {
            "NORMAL": 1,
            "POSITION": 0,
            "TANGENT": 2,
            "TEXCOORD_0": 3,
            "TEXCOORD_1": 4
          },
          "indices": 5,
          "material": 0,
          "mode": 4
        }
      ]
    }
  ],
  "nodes": [
    {
      "children": [
        1
      ],
      "matrix": [
        1.0,
        0.0,
        0.0,
        0.0,
        0.0,
        2.220446049250313e-16,
        -1.0,
        0.0,
        0.0,
        1.0,
        2.220446049250313e-16,
        0.0,
        0.0,
        0.0,
        0.0,
        1.0
      ],
      "name": "Sketchfab_model"
    },
    {
      "children": [
        2
      ],
      "matrix": [
        0.009999999776482582,
        0.0,
        0.0,
        0.0,
        0.0,
        0.0,
        0.009999999776482582,
        0.0,
        0.0,
        -0.009999999776482582,
        0.0,
        0.0,
        0.0,
        0.0,
        0.0,
        1.0
      ],
      "name": "2d02fca520344323bdee7be5e4cf798b.fbx"
    },
    {
      "children": [
        3
      ],
      "name": "RootNode"
    },
    {
      "children": [
        4
      ],
      "name": "PhotoFrame"
    },
    {
      "mesh": 0,
      "name": "PhotoFrame_PhotoFrame_MAT_0"
    }
  ],
  "samplers": [
    {
      "magFilter": 9729,
      "minFilter": 9987,
      "wrapS": 10497,
      "wrapT": 10497
    }
  ],
  "scene": 0,
  "scenes": [
    {
      "name": "Sketchfab_Scene",
      "nodes": [
        0
      ]
    }
  ],
  "textures": [
    {
      "sampler": 0,
      "source": 0
    },
    {
      "sampler": 0,
      "source": 1
    },
    {
      "sampler": 0,
      "source": 2
    }
  ]
}
