{
  "accessors": [
    {
      "bufferView": 2,
      "componentType": 5126,
      "count": 40401,
      "max": [
        158.1750030517578,
        227.91400146484375,
        17.99839973449707
      ],
      "min": [
        -185.26600646972656,
        -223.84500122070313,
        -48.12480163574219
      ],
      "type": "VEC3"
    },
    {
      "bufferView": 2,
      "byteOffset": 484812,
      "componentType": 5126,
      "count": 40401,
      "max": [
        1.0,
        0.9999997615814209,
        1.0
      ],
      "min": [
        -1.0,
        -0.9999946355819702,
        -0.369604229927063
      ],
      "type": "VEC3"
    },
    {
      "bufferView": 1,
      "componentType": 5126,
      "count": 40401,
      "max": [
        6.776060104370117,
        11.92140007019043
      ],
      "min": [
        0.0,
        0.8417180180549622
      ],
      "type": "VEC2"
    },
    {
      "bufferView": 0,
      "componentType": 5125,
      "count": 240000,
      "type": "SCALAR"
    },
    {
      "bufferView": 2,
      "byteOffset": 969624,
      "componentType": 5126,
      "count": 10561,
      "max": [
        145.56900024414063,
        213.26400756835938,
        16.99839973449707
      ],
      "min": [
        -173.45599365234375,
        -208.54100036621094,
        -142.90699768066406
      ],
      "type": "VEC3"
    },
    {
      "bufferView": 2,
      "byteOffset": 1096356,
      "componentType": 5126,
      "count": 10561,
      "max": [
        1.0,
        1.0,
        1.0
      ],
      "min": [
        -1.0,
        -1.0,
        -1.0
      ],
      "type": "VEC3"
    },
    {
      "bufferView": 1,
      "byteOffset": 323208,
      "componentType": 5126,
      "count": 10561,
      "max": [
        1.3206599950790405,
        2.3015999794006348
      ],
      "min": [
        -1.3144099712371826,
        -0.27534300088882446
      ],
      "type": "VEC2"
    },
    {
      "bufferView": 0,
      "byteOffset": 960000,
      "componentType": 5125,
      "count": 54144,
      "type": "SCALAR"
    }
  ],
  "asset": {
    "extras": {
      "author": "Silver10211 (https://sketchfab.com/Silver10211)",
      "license": "CC-BY-4.0 (http://creativecommons.org/licenses/by/4.0/)",
      "source": "https://sketchfab.com/3d-models/table-a28843f21d784fe98cc220ef0d1df478",
      "title": "Table"
    },
    "generator": "Sketchfab-12.66.0",
    "version": "2.0"
  },
  "bufferViews": [
    {
      "buffer": 0,
      "byteLength": 1176576,
      "name": "floatBufferViews",
      "target": 34963
    },
    {
      "buffer": 0,
      "byteLength": 407696,
      "byteOffset": 1176576,
      "byteStride": 8,
      "name": "floatBufferViews",
      "target": 34962
    },
    {
      "buffer": 0,
      "byteLength": 1223088,
      "byteOffset": 1584272,
      "byteStride": 12,
      "name": "floatBufferViews",
      "target": 34962
    }
  ],
  "buffers": [
    {
      "byteLength": 2807360,
      "uri": "scene.bin"
    }
  ],
  "images": [
    {
      "uri": "textures/New_Material_baseColor.jpeg"
    },
    {
      "uri": "textures/New_Material__env_2_spec_baseColor.png"
    }
  ],
  "materials": [
    {
      "doubleSided": true,
      "name": "New_Material",
      "pbrMetallicRoughness": {
        "baseColorTexture": {
          "index": 0
        },
        "metallicFactor": 0.0,
        "roughnessFactor": 0.6
      }
    },
    {
      "doubleSided": true,
      "name": "New_Material__env_2_spec",
      "pbrMetallicRoughness": {
        "baseColorTexture": {
          "index": 1
        },
        "metallicFactor": 0.0,
        "roughnessFactor": 0.6
      }
    }
  ],
  "meshes": [
    {
      "name": "Object_0",
      "primitives": [
        {
          "attributes": {
            "NORMAL": 1,
            "POSITION": 0,
            "TEXCOORD_0": 2
          },
          "indices": 3,
          "material": 0,
          "mode": 4
        }
      ]
    },
    {
      "name": "Object_1",
      "primitives": [
        {
          "attributes": {
            "NORMAL": 5,
            "POSITION": 4,
            "TEXCOORD_0": 6
          },
          "indices": 7,
          "material": 1,
          "mode": 4
        }
      ]
    }
  ],
  "nodes": [
    {
      "children": [
        1
      ],
      "matrix": [
        0.005902801640331745,
        0.0,
        0.0,
        0.0,
        0.0,
        1.3106852581782891e-18,
        -0.005902801640331745,
        0.0,
        0.0,
        0.005902801640331745,
        1.3106852581782891e-18,
        0.0,
        0.0,
        0.0,
        0.0,
        1.0
      ],
      "name": "Sketchfab_model"
    },
    {
      "children": [
        2,
        3
      ],
      "name": "table.obj.cleaner.materialmerger.gles"
    },
    {
      "mesh": 0,
      "name": "Object_2"
    },
    {
      "mesh": 1,
      "name": "Object_3"
    }
  ],
  "samplers": [
    {
      "magFilter": 9729,
      "minFilter": 9987,
      "wrapS": 10497,
      "wrapT": 10497
    }
  ],
  "scene": 0,
  "scenes": [
    {
      "name": "Sketchfab_Scene",
      "nodes": [
        0
      ]
    }
  ],
  "textures": [
    {
      "sampler": 0,
      "source": 0
    },
    {
      "sampler": 0,
      "source": 1
    }
  ]
}
